<svg xmlns="http://www.w3.org/2000/svg" viewBox="0 0 72 72" class="svg"><path d="M54.84,59.92a29,29,0,0,1-38,0c-6.51,1.2-10.65,3-10.65,5,0,3.62,13.27,6.56,29.64,6.56S65.49,68.58,65.49,65C65.49,62.94,61.35,61.13,54.84,59.92Z"/><path d="M61.29,37H11c0,14,11.1,25.75,24.8,25.75A24.09,24.09,0,0,0,52.24,56h9.05A9.5,9.5,0,1,0,61.29,37Zm0,14H56.43C58,49,58,42.44,61.29,42.44A4.28,4.28,0,0,1,61.29,51Z"/><path d="M49.42,24.52a8.56,8.56,0,0,1-2.52,6.1l3,3a12.77,12.77,0,0,0,3.76-9.09c0-3.55-1-5.9-3.66-9A7.7,7.7,0,0,1,47.72,9.3a8.54,8.54,0,0,1,2.52-6.08l-3-3A12.75,12.75,0,0,0,43.48,9.3a11.78,11.78,0,0,0,3.32,9C49.05,20.89,49.42,22.25,49.42,24.52Z"/><path d="M24,24.52a8.56,8.56,0,0,1-2.52,6.1l3,3a12.77,12.77,0,0,0,3.76-9.09c0-3.55-1-5.9-3.66-9A7.7,7.7,0,0,1,22.28,9.3,8.54,8.54,0,0,1,24.8,3.22l-3-3A12.75,12.75,0,0,0,18,9.3a11.78,11.78,0,0,0,3.32,9C23.62,20.89,24,22.25,24,24.52Z"/><path d="M36.7,24.52a8.56,8.56,0,0,1-2.52,6.1l3,3a12.77,12.77,0,0,0,3.76-9.09c0-3.55-1-5.9-3.66-9A7.7,7.7,0,0,1,35,9.3a8.54,8.54,0,0,1,2.52-6.08l-3-3A12.75,12.75,0,0,0,30.76,9.3a11.78,11.78,0,0,0,3.32,9C36.33,20.89,36.7,22.25,36.7,24.52Z"/></svg>