<svg xmlns="http://www.w3.org/2000/svg" viewBox="0 0 72 72" class="svg"><path d="M19,19V70.71s3.49,0.1,5.79,0A166,166,0,0,0,45.6,68.25a132.78,132.78,0,0,0,21.45-5.49c0.65-.23.66-1.12,0.66-1.78,0-13.49-.15-42-0.15-42H19ZM54.5,61.48a7.11,7.11,0,0,1-8.06-1.08,17.12,17.12,0,0,1-2.1-2.9c-1.75-2.88-3.45-5.79-5.13-8.71-0.3-.53-0.15-0.77-0.77-0.71a13,13,0,0,1-1.44,0V59.44c-2,.18-4.68.09-6.41,0.08-1,0-1.23-.12-0.92-1a5.25,5.25,0,0,0,.21-1.79c0-9,0-18-.06-27a4.46,4.46,0,0,0-.37-1.61c-0.33-.8-0.33-0.91.55-0.91,3.71,0,7.41,0,11.11.09,8.27,0.42,10.84,4.87,11.11,9.16,0.12,1.94.15,8.42-6.27,10.74,0.13,0.24,4.38,7.41,6.48,10.76a16.53,16.53,0,0,0,2.21,2.55C55.09,61,55,61.22,54.5,61.48Z"/><polygon points="14 7 14 1.25 3 3.79 3 7 1 7 1 14 3 14 3 70 14 70 14 14 71 14 71 7 14 7"/><path d="M42.89,33A44.37,44.37,0,0,0,37,32.81V43.65s2.68,0.07,4.2,0c4.24-.26,5.11-3.13,5.11-5.66S45.44,33.35,42.89,33Z"/></svg>